<svg xmlns="http://www.w3.org/2000/svg" viewBox="0 0 1080 1080" width="1080" height="1080"
  preserveAspectRatio="xMidYMid meet" style="width: 100%; height: 100%; transform: translate3d(0px, 0px, 0px);">
  <defs>
    <clipPath id="__lottie_element_6">
      <rect width="1080" height="1080" x="0" y="0"></rect>
    </clipPath>
  </defs>
  <g clip-path="url(#__lottie_element_6)">
    <g transform="matrix(2.1500000953674316,0,0,2.1500000953674316,231.6856689453125,149.39016723632812)" opacity="1"
      style="display: block;">
      <g opacity="1"
        transform="matrix(-0.9902680516242981,0.13917310535907745,-0.13917310535907745,-0.9902680516242981,62.856998443603516,29.506999969482422)">
        <path stroke-linecap="round" stroke-linejoin="round" fill-opacity="0" stroke="rgb(113,147,97)"
          stroke-opacity="1" stroke-width="26" d="M0 0"></path>
      </g>
      <g opacity="1" transform="matrix(1,0,0,1,138.38499450683594,23.766000747680664)">
        <path stroke-linecap="round" stroke-linejoin="round" fill-opacity="0" stroke="rgb(113,147,97)"
          stroke-opacity="1" stroke-width="26" d="M0 0"></path>
      </g>
      <g opacity="1"
        transform="matrix(-0.9986295104026794,-0.0523359552025795,0.0523359552025795,-0.9986295104026794,25.625999450683594,89.0270004272461)">
        <path stroke-linecap="round" stroke-linejoin="round" fill-opacity="0" stroke="rgb(113,147,97)"
          stroke-opacity="1" stroke-width="26" d="M0 0"></path>
      </g>
      <g opacity="1" transform="matrix(1,0,0,1,175.63299560546875,64.76499938964844)">
        <path stroke-linecap="round" stroke-linejoin="round" fill-opacity="0" stroke="rgb(113,147,97)"
          stroke-opacity="1" stroke-width="26" d="M0 0"></path>
      </g>
      <g opacity="1" transform="matrix(1,0,0,1,41.29499816894531,141.8990020751953)">
        <path stroke-linecap="round" stroke-linejoin="round" fill-opacity="0" stroke="rgb(113,147,97)"
          stroke-opacity="1" stroke-width="26" d="M0 0"></path>
      </g>
    </g>
    <g transform="matrix(2.1500000953674316,0,0,2.1500000953674316,475.7401123046875,434.8819580078125)" opacity="1"
      style="display: block;">
      <g opacity="1" transform="matrix(1,0,0,1,97.0739974975586,136.19900512695312)">
        <path fill="rgb(232,191,188)" fill-opacity="1"
          d=" M69.88200378417969,-73.6729965209961 C67.6729965209961,-81.35900115966797 60.37200164794922,-86.9729995727539 52.430999755859375,-86.02400207519531 C42.3129997253418,-84.81400299072266 36.09600067138672,-74.98799896240234 38.79800033569336,-65.62100219726562 C38.79800033569336,-65.62100219726562 36.417999267578125,-73.87000274658203 36.417999267578125,-73.87000274658203 C33.57600021362305,-83.7239990234375 23.48900032043457,-89.9260025024414 13.545999526977539,-87.41400146484375 C3.1540000438690186,-84.78800201416016 -2.9159998893737793,-74.10900115966797 0.029999999329447746,-63.895999908447266 C0.029999999329447746,-63.895999908447266 -1.6339999437332153,-69.66400146484375 -1.6339999437332153,-69.66400146484375 C-4.473999977111816,-79.51300048828125 -14.555000305175781,-85.71499633789062 -24.493999481201172,-83.20899963378906 C-34.88800048828125,-80.58799743652344 -40.96900177001953,-69.90599822998047 -38.02199935913086,-59.6879997253418 C-38.02199935913086,-59.6879997253418 -55.10499954223633,-118.9229965209961 -55.10499954223633,-118.9229965209961 C-58.11800003051758,-129.37100219726562 -68.81500244140625,-135.947998046875 -79.35800170898438,-133.28700256347656 C-90.38099670410156,-130.50399780273438 -96.822998046875,-119.1780014038086 -93.6969985961914,-108.33899688720703 C-93.6969985961914,-108.33899688720703 -75.22000122070312,-44.26900100708008 -75.22000122070312,-44.26900100708008 C-75.22000122070312,-44.26900100708008 -70.9729995727539,-29.54199981689453 -70.9729995727539,-29.54199981689453 C-81.12100219726562,-22.969999313354492 -87.26399993896484,-11.718000411987305 -87.30599975585938,0.3720000088214874 C-87.30599975585938,0.3720000088214874 -87.38400268554688,23.020000457763672 -87.38400268554688,23.020000457763672 C-87.4540023803711,43.10100173950195 -76.38400268554688,61.566001892089844 -58.638999938964844,70.96800231933594 C-58.638999938964844,70.96800231933594 -17.263999938964844,92.89299774169922 -17.263999938964844,92.89299774169922 C-17.260000228881836,92.8949966430664 -17.256999969482422,92.89900207519531 -17.256000518798828,92.90299987792969 C-17.256000518798828,92.90299987792969 -8.914999961853027,121.8270034790039 -8.914999961853027,121.8270034790039 C-6.331999778747559,130.78199768066406 3.0230000019073486,135.94900512695312 11.977999687194824,133.36700439453125 C11.977999687194824,133.36700439453125 70.25900268554688,116.55899810791016 70.25900268554688,116.55899810791016 C78.38300323486328,114.21600341796875 83.07099914550781,105.7300033569336 80.72799682617188,97.60600280761719 C80.72799682617188,97.60600280761719 71.95500183105469,67.18900299072266 71.95500183105469,67.18900299072266 C90.1780014038086,47.70800018310547 96.8239974975586,20.084999084472656 89.45700073242188,-5.552999973297119 C89.45700073242188,-5.552999973297119 69.88200378417969,-73.6729965209961 69.88200378417969,-73.6729965209961z">
        </path>
      </g>
    </g>
  </g>
</svg>